<svg width="12" height="15" viewBox="0 0 12 15" fill="none" xmlns="http://www.w3.org/2000/svg">
<path d="M1.99984 14.1667C1.63317 14.1667 1.31928 14.0361 1.05817 13.775C0.797059 13.5139 0.666504 13.2 0.666504 12.8333V6.16666C0.666504 5.79999 0.797059 5.4861 1.05817 5.22499C1.31928 4.96388 1.63317 4.83332 1.99984 4.83332H2.6665V3.49999C2.6665 2.57777 2.9915 1.79166 3.6415 1.14166C4.2915 0.491657 5.07761 0.166656 5.99984 0.166656C6.92206 0.166656 7.70817 0.491657 8.35817 1.14166C9.00817 1.79166 9.33317 2.57777 9.33317 3.49999V4.83332H9.99984C10.3665 4.83332 10.6804 4.96388 10.9415 5.22499C11.2026 5.4861 11.3332 5.79999 11.3332 6.16666V12.8333C11.3332 13.2 11.2026 13.5139 10.9415 13.775C10.6804 14.0361 10.3665 14.1667 9.99984 14.1667H1.99984ZM1.99984 12.8333H9.99984V6.16666H1.99984V12.8333ZM5.99984 10.8333C6.3665 10.8333 6.68039 10.7028 6.9415 10.4417C7.20261 10.1805 7.33317 9.86666 7.33317 9.49999C7.33317 9.13332 7.20261 8.81943 6.9415 8.55832C6.68039 8.29721 6.3665 8.16666 5.99984 8.16666C5.63317 8.16666 5.31928 8.29721 5.05817 8.55832C4.79706 8.81943 4.6665 9.13332 4.6665 9.49999C4.6665 9.86666 4.79706 10.1805 5.05817 10.4417C5.31928 10.7028 5.63317 10.8333 5.99984 10.8333ZM3.99984 4.83332H7.99984V3.49999C7.99984 2.94443 7.80539 2.47221 7.4165 2.08332C7.02761 1.69443 6.55539 1.49999 5.99984 1.49999C5.44428 1.49999 4.97206 1.69443 4.58317 2.08332C4.19428 2.47221 3.99984 2.94443 3.99984 3.49999V4.83332Z" fill="white"/>
</svg>
