<svg width="10" height="9" viewBox="0 0 10 9" fill="none" xmlns="http://www.w3.org/2000/svg">
<path d="M1.5 8.00006H2.2125L7.1 3.11256L6.3875 2.40006L1.5 7.28756V8.00006ZM1 9.00006C0.858333 9.00006 0.739583 8.95214 0.64375 8.85631C0.547917 8.76048 0.5 8.64173 0.5 8.50006V7.28756C0.5 7.15423 0.525 7.02714 0.575 6.90631C0.625 6.78548 0.695833 6.67923 0.7875 6.58756L7.1 0.287561C7.2 0.195894 7.31042 0.125061 7.43125 0.075061C7.55208 0.025061 7.67917 6.10352e-05 7.8125 6.10352e-05C7.94583 6.10352e-05 8.075 0.025061 8.2 0.075061C8.325 0.125061 8.43333 0.200061 8.525 0.300061L9.2125 1.00006C9.3125 1.09173 9.38542 1.20006 9.43125 1.32506C9.47708 1.45006 9.5 1.57506 9.5 1.70006C9.5 1.83339 9.47708 1.96048 9.43125 2.08131C9.38542 2.20214 9.3125 2.31256 9.2125 2.41256L2.9125 8.71256C2.82083 8.80423 2.71458 8.87506 2.59375 8.92506C2.47292 8.97506 2.34583 9.00006 2.2125 9.00006H1ZM6.7375 2.76256L6.3875 2.40006L7.1 3.11256L6.7375 2.76256Z" fill="white"/>
</svg>
