<svg width="21" height="20" viewBox="0 0 21 20" fill="none" xmlns="http://www.w3.org/2000/svg">
<path d="M9.32498 20C8.87498 20 8.48748 19.85 8.16248 19.55C7.83748 19.25 7.64165 18.8833 7.57498 18.45L7.34998 16.8C7.13331 16.7167 6.92915 16.6167 6.73748 16.5C6.54581 16.3833 6.35831 16.2583 6.17498 16.125L4.62498 16.775C4.20831 16.9583 3.79165 16.975 3.37498 16.825C2.95831 16.675 2.63331 16.4083 2.39998 16.025L1.22498 13.975C0.991647 13.5917 0.92498 13.1833 1.02498 12.75C1.12498 12.3167 1.34998 11.9583 1.69998 11.675L3.02498 10.675C3.00831 10.5583 2.99998 10.4458 2.99998 10.3375V9.6625C2.99998 9.55417 3.00831 9.44167 3.02498 9.325L1.69998 8.325C1.34998 8.04167 1.12498 7.68333 1.02498 7.25C0.92498 6.81667 0.991647 6.40833 1.22498 6.025L2.39998 3.975C2.63331 3.59167 2.95831 3.325 3.37498 3.175C3.79165 3.025 4.20831 3.04167 4.62498 3.225L6.17498 3.875C6.35831 3.74167 6.54998 3.61667 6.74998 3.5C6.94998 3.38333 7.14998 3.28333 7.34998 3.2L7.57498 1.55C7.64165 1.11667 7.83748 0.75 8.16248 0.45C8.48748 0.15 8.87498 0 9.32498 0H11.675C12.125 0 12.5125 0.15 12.8375 0.45C13.1625 0.75 13.3583 1.11667 13.425 1.55L13.65 3.2C13.8666 3.28333 14.0708 3.38333 14.2625 3.5C14.4541 3.61667 14.6416 3.74167 14.825 3.875L16.375 3.225C16.7916 3.04167 17.2083 3.025 17.625 3.175C18.0416 3.325 18.3666 3.59167 18.6 3.975L19.775 6.025C20.0083 6.40833 20.075 6.81667 19.975 7.25C19.875 7.68333 19.65 8.04167 19.3 8.325L17.975 9.325C17.9916 9.44167 18 9.55417 18 9.6625V10.3375C18 10.4458 17.9833 10.5583 17.95 10.675L19.275 11.675C19.625 11.9583 19.85 12.3167 19.95 12.75C20.05 13.1833 19.9833 13.5917 19.75 13.975L18.55 16.025C18.3166 16.4083 17.9916 16.675 17.575 16.825C17.1583 16.975 16.7416 16.9583 16.325 16.775L14.825 16.125C14.6416 16.2583 14.45 16.3833 14.25 16.5C14.05 16.6167 13.85 16.7167 13.65 16.8L13.425 18.45C13.3583 18.8833 13.1625 19.25 12.8375 19.55C12.5125 19.85 12.125 20 11.675 20H9.32498ZM9.49998 18H11.475L11.825 15.35C12.3416 15.2167 12.8208 15.0208 13.2625 14.7625C13.7041 14.5042 14.1083 14.1917 14.475 13.825L16.95 14.85L17.925 13.15L15.775 11.525C15.8583 11.2917 15.9166 11.0458 15.95 10.7875C15.9833 10.5292 16 10.2667 16 10C16 9.73333 15.9833 9.47083 15.95 9.2125C15.9166 8.95417 15.8583 8.70833 15.775 8.475L17.925 6.85L16.95 5.15L14.475 6.2C14.1083 5.81667 13.7041 5.49583 13.2625 5.2375C12.8208 4.97917 12.3416 4.78333 11.825 4.65L11.5 2H9.52498L9.17498 4.65C8.65831 4.78333 8.17915 4.97917 7.73748 5.2375C7.29581 5.49583 6.89165 5.80833 6.52498 6.175L4.04998 5.15L3.07498 6.85L5.22498 8.45C5.14165 8.7 5.08331 8.95 5.04998 9.2C5.01665 9.45 4.99998 9.71667 4.99998 10C4.99998 10.2667 5.01665 10.525 5.04998 10.775C5.08331 11.025 5.14165 11.275 5.22498 11.525L3.07498 13.15L4.04998 14.85L6.52498 13.8C6.89165 14.1833 7.29581 14.5042 7.73748 14.7625C8.17915 15.0208 8.65831 15.2167 9.17498 15.35L9.49998 18ZM10.55 13.5C11.5166 13.5 12.3416 13.1583 13.025 12.475C13.7083 11.7917 14.05 10.9667 14.05 10C14.05 9.03333 13.7083 8.20833 13.025 7.525C12.3416 6.84167 11.5166 6.5 10.55 6.5C9.56665 6.5 8.73748 6.84167 8.06248 7.525C7.38748 8.20833 7.04998 9.03333 7.04998 10C7.04998 10.9667 7.38748 11.7917 8.06248 12.475C8.73748 13.1583 9.56665 13.5 10.55 13.5Z" fill="#5E5E5E"/>
</svg>
