<svg width="19" height="18" viewBox="0 0 19 18" fill="none" xmlns="http://www.w3.org/2000/svg">
<path d="M2.5 18C1.95 18 1.47917 17.8042 1.0875 17.4125C0.695833 17.0208 0.5 16.55 0.5 16V2C0.5 1.45 0.695833 0.979167 1.0875 0.5875C1.47917 0.195833 1.95 0 2.5 0H8.5C8.78333 0 9.02083 0.0958333 9.2125 0.2875C9.40417 0.479167 9.5 0.716667 9.5 1C9.5 1.28333 9.40417 1.52083 9.2125 1.7125C9.02083 1.90417 8.78333 2 8.5 2H2.5V16H8.5C8.78333 16 9.02083 16.0958 9.2125 16.2875C9.40417 16.4792 9.5 16.7167 9.5 17C9.5 17.2833 9.40417 17.5208 9.2125 17.7125C9.02083 17.9042 8.78333 18 8.5 18H2.5ZM14.675 10H7.5C7.21667 10 6.97917 9.90417 6.7875 9.7125C6.59583 9.52083 6.5 9.28333 6.5 9C6.5 8.71667 6.59583 8.47917 6.7875 8.2875C6.97917 8.09583 7.21667 8 7.5 8H14.675L12.8 6.125C12.6167 5.94167 12.525 5.71667 12.525 5.45C12.525 5.18333 12.6167 4.95 12.8 4.75C12.9833 4.55 13.2167 4.44583 13.5 4.4375C13.7833 4.42917 14.025 4.525 14.225 4.725L17.8 8.3C18 8.5 18.1 8.73333 18.1 9C18.1 9.26667 18 9.5 17.8 9.7L14.225 13.275C14.025 13.475 13.7875 13.5708 13.5125 13.5625C13.2375 13.5542 13 13.45 12.8 13.25C12.6167 13.05 12.5292 12.8125 12.5375 12.5375C12.5458 12.2625 12.6417 12.0333 12.825 11.85L14.675 10Z" fill="#5E5E5E"/>
</svg>
