<svg width="8" height="11" viewBox="0 0 8 11" fill="none" xmlns="http://www.w3.org/2000/svg">
<path d="M1 10.5001C0.725 10.5001 0.489583 10.4021 0.29375 10.2063C0.0979167 10.0105 0 9.77506 0 9.50006V4.50006C0 4.22506 0.0979167 3.98964 0.29375 3.79381C0.489583 3.59798 0.725 3.50006 1 3.50006H5.5V2.50006C5.5 2.08339 5.35417 1.72923 5.0625 1.43756C4.77083 1.14589 4.41667 1.00006 4 1.00006C3.65 1.00006 3.34375 1.10631 3.08125 1.31881C2.81875 1.53131 2.64167 1.79589 2.55 2.11256C2.51667 2.22923 2.44792 2.32298 2.34375 2.39381C2.23958 2.46464 2.125 2.50006 2 2.50006C1.85833 2.50006 1.73958 2.45423 1.64375 2.36256C1.54792 2.27089 1.5125 2.16256 1.5375 2.03756C1.65417 1.46256 1.94167 0.979228 2.4 0.587561C2.85833 0.195894 3.39167 6.10352e-05 4 6.10352e-05C4.69167 6.10352e-05 5.28125 0.243811 5.76875 0.731311C6.25625 1.21881 6.5 1.80839 6.5 2.50006V3.50006H7C7.275 3.50006 7.51042 3.59798 7.70625 3.79381C7.90208 3.98964 8 4.22506 8 4.50006V9.50006C8 9.77506 7.90208 10.0105 7.70625 10.2063C7.51042 10.4021 7.275 10.5001 7 10.5001H1ZM1 9.50006H7V4.50006H1V9.50006ZM4 8.00006C4.275 8.00006 4.51042 7.90214 4.70625 7.70631C4.90208 7.51048 5 7.27506 5 7.00006C5 6.72506 4.90208 6.48964 4.70625 6.29381C4.51042 6.09798 4.275 6.00006 4 6.00006C3.725 6.00006 3.48958 6.09798 3.29375 6.29381C3.09792 6.48964 3 6.72506 3 7.00006C3 7.27506 3.09792 7.51048 3.29375 7.70631C3.48958 7.90214 3.725 8.00006 4 8.00006Z" fill="white"/>
</svg>
