<svg width="8" height="9" viewBox="0 0 8 9" fill="none" xmlns="http://www.w3.org/2000/svg">
<path d="M1.5 9.00006C1.225 9.00006 0.989583 8.90214 0.79375 8.70631C0.597917 8.51048 0.5 8.27506 0.5 8.00006V1.50006C0.358333 1.50006 0.239583 1.45214 0.14375 1.35631C0.0479167 1.26048 0 1.14173 0 1.00006C0 0.858394 0.0479167 0.739644 0.14375 0.643811C0.239583 0.547978 0.358333 0.500061 0.5 0.500061H2.5C2.5 0.358394 2.54792 0.239644 2.64375 0.143811C2.73958 0.0479777 2.85833 6.10352e-05 3 6.10352e-05H5C5.14167 6.10352e-05 5.26042 0.0479777 5.35625 0.143811C5.45208 0.239644 5.5 0.358394 5.5 0.500061H7.5C7.64167 0.500061 7.76042 0.547978 7.85625 0.643811C7.95208 0.739644 8 0.858394 8 1.00006C8 1.14173 7.95208 1.26048 7.85625 1.35631C7.76042 1.45214 7.64167 1.50006 7.5 1.50006V8.00006C7.5 8.27506 7.40208 8.51048 7.20625 8.70631C7.01042 8.90214 6.775 9.00006 6.5 9.00006H1.5ZM3 7.00006C3.14167 7.00006 3.26042 6.95214 3.35625 6.85631C3.45208 6.76048 3.5 6.64173 3.5 6.50006V3.00006C3.5 2.85839 3.45208 2.73964 3.35625 2.64381C3.26042 2.54798 3.14167 2.50006 3 2.50006C2.85833 2.50006 2.73958 2.54798 2.64375 2.64381C2.54792 2.73964 2.5 2.85839 2.5 3.00006V6.50006C2.5 6.64173 2.54792 6.76048 2.64375 6.85631C2.73958 6.95214 2.85833 7.00006 3 7.00006ZM5 7.00006C5.14167 7.00006 5.26042 6.95214 5.35625 6.85631C5.45208 6.76048 5.5 6.64173 5.5 6.50006V3.00006C5.5 2.85839 5.45208 2.73964 5.35625 2.64381C5.26042 2.54798 5.14167 2.50006 5 2.50006C4.85833 2.50006 4.73958 2.54798 4.64375 2.64381C4.54792 2.73964 4.5 2.85839 4.5 3.00006V6.50006C4.5 6.64173 4.54792 6.76048 4.64375 6.85631C4.73958 6.95214 4.85833 7.00006 5 7.00006Z" fill="white"/>
</svg>
